<svg width="600" height="800" viewBox="0 0 390 638" fill="none" xmlns="http://www.w3.org/2000/svg">
<g filter="url(#filter0_dddd_1375_1296)">
<rect x="46.3857" y="15" width="330" height="460" rx="20" transform="rotate(1.41828 46.3857 15)" fill="white"/>
</g>
<g filter="url(#filter1_dddd_1375_1296)">
<rect x="30" y="9" width="330" height="460" rx="20" fill="white"/>
</g>
<g clip-path="url(#clip0_1375_1296)">
<path d="M95.091 413.664C94.0484 413.68 93.0285 413.971 92.1343 414.507C91.2401 415.044 90.5034 415.807 89.9984 416.719C89.4934 415.807 88.7567 415.044 87.8625 414.507C86.9684 413.971 85.9485 413.68 84.9058 413.664C83.2437 413.736 81.6778 414.463 80.5501 415.686C79.4224 416.909 78.8246 418.529 78.8873 420.191C78.8873 424.402 83.3188 429 87.0354 432.117C87.8653 432.815 88.9145 433.197 89.9984 433.197C91.0823 433.197 92.1315 432.815 92.9614 432.117C96.678 429 101.11 424.402 101.11 420.191C101.172 418.529 100.574 416.909 99.4468 415.686C98.319 414.463 96.7531 413.736 95.091 413.664ZM91.7716 430.701C91.2752 431.119 90.6473 431.348 89.9984 431.348C89.3496 431.348 88.7216 431.119 88.2253 430.701C83.4679 426.709 80.7391 422.879 80.7391 420.191C80.6759 419.02 81.0784 417.871 81.8589 416.995C82.6395 416.119 83.7347 415.587 84.9058 415.515C86.0769 415.587 87.1721 416.119 87.9527 416.995C88.7333 417.871 89.1358 419.02 89.0725 420.191C89.0725 420.437 89.17 420.672 89.3437 420.846C89.5173 421.02 89.7528 421.117 89.9984 421.117C90.244 421.117 90.4795 421.02 90.6531 420.846C90.8268 420.672 90.9243 420.437 90.9243 420.191C90.861 419.02 91.2636 417.871 92.0441 416.995C92.8247 416.119 93.9199 415.587 95.091 415.515C96.2621 415.587 97.3573 416.119 98.1379 416.995C98.9184 417.871 99.321 419.02 99.2577 420.191C99.2577 422.879 96.529 426.709 91.7716 430.697V430.701Z" fill="#D91609"/>
</g>
<g clip-path="url(#clip1_1375_1296)">
<path d="M313.153 415.862C313.067 415.776 312.965 415.708 312.852 415.661C312.74 415.614 312.619 415.59 312.498 415.59C312.376 415.59 312.256 415.614 312.143 415.661C312.031 415.708 311.929 415.776 311.843 415.862C311.757 415.948 311.688 416.05 311.642 416.162C311.595 416.275 311.571 416.395 311.571 416.517C311.571 416.639 311.595 416.759 311.642 416.871C311.688 416.984 311.757 417.086 311.843 417.172C313.386 418.719 314.253 420.815 314.253 423.001C314.253 425.186 313.386 427.282 311.843 428.829C311.669 429.003 311.571 429.239 311.571 429.484C311.571 429.73 311.669 429.966 311.843 430.14C312.016 430.313 312.252 430.411 312.498 430.411C312.743 430.411 312.979 430.313 313.153 430.14C315.043 428.245 316.105 425.677 316.105 423.001C316.105 420.324 315.043 417.757 313.153 415.862Z" fill="#CF9A05"/>
<path d="M310.647 418.64C310.561 418.553 310.459 418.485 310.346 418.438C310.234 418.391 310.113 418.367 309.991 418.367C309.869 418.367 309.749 418.39 309.636 418.437C309.523 418.483 309.421 418.551 309.335 418.637C309.248 418.724 309.18 418.826 309.133 418.938C309.086 419.051 309.062 419.171 309.062 419.293C309.061 419.415 309.085 419.536 309.132 419.649C309.178 419.761 309.246 419.864 309.332 419.95C310.14 420.759 310.594 421.856 310.594 423C310.594 424.144 310.14 425.241 309.332 426.05C309.246 426.136 309.178 426.239 309.132 426.351C309.085 426.464 309.061 426.585 309.062 426.707C309.062 426.829 309.086 426.949 309.133 427.062C309.18 427.174 309.248 427.276 309.335 427.362C309.509 427.536 309.745 427.634 309.991 427.633C310.113 427.633 310.234 427.609 310.346 427.562C310.459 427.515 310.561 427.446 310.647 427.36C311.802 426.203 312.451 424.635 312.451 423C312.451 421.365 311.802 419.797 310.647 418.64Z" fill="#CF9A05"/>
<path d="M306.684 412.074C303.869 412.603 301.364 414.195 299.69 416.519H298.517C297.29 416.521 296.114 417.009 295.246 417.877C294.378 418.745 293.89 419.921 293.888 421.148V424.852C293.89 426.079 294.378 427.256 295.246 428.124C296.114 428.991 297.29 429.48 298.517 429.482H299.69C301.365 431.806 303.869 433.397 306.684 433.926C306.739 433.937 306.795 433.942 306.852 433.942C307.097 433.942 307.333 433.844 307.506 433.671C307.68 433.497 307.778 433.262 307.778 433.016V412.987C307.778 412.851 307.748 412.717 307.691 412.594C307.633 412.47 307.549 412.361 307.445 412.274C307.341 412.187 307.218 412.124 307.087 412.089C306.955 412.055 306.818 412.05 306.684 412.074ZM305.925 431.829C303.882 431.178 302.126 429.844 300.952 428.051C300.868 427.922 300.753 427.816 300.617 427.742C300.482 427.669 300.331 427.63 300.177 427.63H298.517C297.781 427.63 297.074 427.337 296.553 426.816C296.032 426.295 295.74 425.589 295.74 424.852V421.148C295.74 420.412 296.032 419.705 296.553 419.184C297.074 418.663 297.781 418.371 298.517 418.371H300.184C300.338 418.371 300.489 418.332 300.625 418.259C300.76 418.186 300.875 418.08 300.959 417.951C302.131 416.159 303.885 414.824 305.925 414.172V431.829Z" fill="#CF9A05"/>
</g>
<path d="M147.994 200.6C147.701 200.6 147.448 200.5 147.234 200.3C147.034 200.1 146.934 199.853 146.934 199.56V183.94C146.934 183.633 147.034 183.387 147.234 183.2C147.448 183 147.701 182.9 147.994 182.9H150.854C151.161 182.9 151.394 182.993 151.554 183.18C151.728 183.353 151.814 183.573 151.814 183.84C151.814 184.107 151.728 184.333 151.554 184.52C151.394 184.693 151.161 184.78 150.854 184.78H149.434V198.72H150.854C151.161 198.72 151.394 198.807 151.554 198.98C151.728 199.167 151.814 199.393 151.814 199.66C151.814 199.927 151.728 200.147 151.554 200.32C151.394 200.507 151.161 200.6 150.854 200.6H147.994ZM156.765 197.2C156.191 197.2 155.585 197.14 154.945 197.02C154.305 196.9 153.731 196.693 153.225 196.4C153.011 196.267 152.858 196.113 152.765 195.94C152.685 195.753 152.651 195.573 152.665 195.4C152.691 195.213 152.758 195.053 152.865 194.92C152.985 194.787 153.131 194.7 153.305 194.66C153.491 194.62 153.691 194.653 153.905 194.76C154.438 195.013 154.938 195.193 155.405 195.3C155.871 195.393 156.331 195.44 156.785 195.44C157.425 195.44 157.898 195.333 158.205 195.12C158.525 194.893 158.685 194.6 158.685 194.24C158.685 193.933 158.578 193.7 158.365 193.54C158.165 193.367 157.858 193.24 157.445 193.16L155.445 192.78C154.618 192.62 153.985 192.32 153.545 191.88C153.118 191.427 152.905 190.847 152.905 190.14C152.905 189.5 153.078 188.947 153.425 188.48C153.785 188.013 154.278 187.653 154.905 187.4C155.531 187.147 156.251 187.02 157.065 187.02C157.651 187.02 158.198 187.087 158.705 187.22C159.225 187.34 159.725 187.533 160.205 187.8C160.405 187.907 160.538 188.047 160.605 188.22C160.685 188.393 160.705 188.573 160.665 188.76C160.625 188.933 160.545 189.093 160.425 189.24C160.305 189.373 160.151 189.46 159.965 189.5C159.791 189.527 159.591 189.487 159.365 189.38C158.951 189.167 158.551 189.013 158.165 188.92C157.791 188.827 157.431 188.78 157.085 188.78C156.431 188.78 155.945 188.893 155.625 189.12C155.318 189.347 155.165 189.647 155.165 190.02C155.165 190.3 155.258 190.533 155.445 190.72C155.631 190.907 155.918 191.033 156.305 191.1L158.305 191.48C159.171 191.64 159.825 191.933 160.265 192.36C160.718 192.787 160.945 193.36 160.945 194.08C160.945 195.053 160.565 195.82 159.805 196.38C159.045 196.927 158.031 197.2 156.765 197.2ZM167.333 197.2C166.466 197.2 165.739 197.053 165.153 196.76C164.579 196.467 164.153 196.04 163.873 195.48C163.593 194.907 163.453 194.2 163.453 193.36V189.1H162.413C162.093 189.1 161.846 189.02 161.673 188.86C161.499 188.687 161.413 188.453 161.413 188.16C161.413 187.853 161.499 187.62 161.673 187.46C161.846 187.3 162.093 187.22 162.413 187.22H163.453V185.4C163.453 184.987 163.559 184.673 163.773 184.46C163.999 184.247 164.313 184.14 164.713 184.14C165.113 184.14 165.419 184.247 165.633 184.46C165.846 184.673 165.953 184.987 165.953 185.4V187.22H168.073C168.393 187.22 168.639 187.3 168.813 187.46C168.986 187.62 169.073 187.853 169.073 188.16C169.073 188.453 168.986 188.687 168.813 188.86C168.639 189.02 168.393 189.1 168.073 189.1H165.953V193.22C165.953 193.86 166.093 194.34 166.373 194.66C166.653 194.98 167.106 195.14 167.733 195.14C167.959 195.14 168.159 195.12 168.333 195.08C168.506 195.04 168.659 195.013 168.793 195C168.953 194.987 169.086 195.04 169.193 195.16C169.299 195.267 169.353 195.493 169.353 195.84C169.353 196.107 169.306 196.347 169.213 196.56C169.133 196.76 168.979 196.9 168.753 196.98C168.579 197.033 168.353 197.08 168.073 197.12C167.793 197.173 167.546 197.2 167.333 197.2ZM173.749 197.2C173.042 197.2 172.409 197.067 171.849 196.8C171.302 196.52 170.869 196.147 170.549 195.68C170.242 195.213 170.089 194.687 170.089 194.1C170.089 193.38 170.275 192.813 170.649 192.4C171.022 191.973 171.629 191.667 172.469 191.48C173.309 191.293 174.435 191.2 175.849 191.2H176.849V192.64H175.869C175.042 192.64 174.382 192.68 173.889 192.76C173.395 192.84 173.042 192.98 172.829 193.18C172.629 193.367 172.529 193.633 172.529 193.98C172.529 194.42 172.682 194.78 172.989 195.06C173.295 195.34 173.722 195.48 174.269 195.48C174.709 195.48 175.095 195.38 175.429 195.18C175.775 194.967 176.049 194.68 176.249 194.32C176.449 193.96 176.549 193.547 176.549 193.08V190.78C176.549 190.113 176.402 189.633 176.109 189.34C175.815 189.047 175.322 188.9 174.629 188.9C174.242 188.9 173.822 188.947 173.369 189.04C172.929 189.133 172.462 189.293 171.969 189.52C171.715 189.64 171.489 189.673 171.289 189.62C171.102 189.567 170.955 189.46 170.849 189.3C170.742 189.127 170.689 188.94 170.689 188.74C170.689 188.54 170.742 188.347 170.849 188.16C170.955 187.96 171.135 187.813 171.389 187.72C172.002 187.467 172.589 187.287 173.149 187.18C173.722 187.073 174.242 187.02 174.709 187.02C175.669 187.02 176.455 187.167 177.069 187.46C177.695 187.753 178.162 188.2 178.469 188.8C178.775 189.387 178.929 190.147 178.929 191.08V195.88C178.929 196.293 178.829 196.613 178.629 196.84C178.429 197.053 178.142 197.16 177.769 197.16C177.395 197.16 177.102 197.053 176.889 196.84C176.689 196.613 176.589 196.293 176.589 195.88V194.92H176.749C176.655 195.387 176.469 195.793 176.189 196.14C175.922 196.473 175.582 196.733 175.169 196.92C174.755 197.107 174.282 197.2 173.749 197.2ZM183.086 189.06L181.306 186.28H184.866L183.086 189.06ZM181.306 197L183.086 194.22L184.866 197H181.306ZM188.586 197.16C188.173 197.16 187.853 197.053 187.626 196.84C187.413 196.613 187.306 196.293 187.306 195.88V188.32C187.306 187.907 187.413 187.593 187.626 187.38C187.839 187.167 188.139 187.06 188.526 187.06C188.913 187.06 189.213 187.167 189.426 187.38C189.639 187.593 189.746 187.907 189.746 188.32V189.58H189.546C189.733 188.78 190.099 188.173 190.646 187.76C191.193 187.347 191.919 187.1 192.826 187.02C193.106 186.993 193.326 187.067 193.486 187.24C193.659 187.4 193.759 187.653 193.786 188C193.813 188.333 193.733 188.607 193.546 188.82C193.373 189.02 193.106 189.14 192.746 189.18L192.306 189.22C191.493 189.3 190.879 189.553 190.466 189.98C190.053 190.393 189.846 190.98 189.846 191.74V195.88C189.846 196.293 189.739 196.613 189.526 196.84C189.313 197.053 188.999 197.16 188.586 197.16ZM200.184 197.2C199.318 197.2 198.591 197.053 198.004 196.76C197.431 196.467 197.004 196.04 196.724 195.48C196.444 194.907 196.304 194.2 196.304 193.36V189.1H195.264C194.944 189.1 194.698 189.02 194.524 188.86C194.351 188.687 194.264 188.453 194.264 188.16C194.264 187.853 194.351 187.62 194.524 187.46C194.698 187.3 194.944 187.22 195.264 187.22H196.304V185.4C196.304 184.987 196.411 184.673 196.624 184.46C196.851 184.247 197.164 184.14 197.564 184.14C197.964 184.14 198.271 184.247 198.484 184.46C198.698 184.673 198.804 184.987 198.804 185.4V187.22H200.924C201.244 187.22 201.491 187.3 201.664 187.46C201.838 187.62 201.924 187.853 201.924 188.16C201.924 188.453 201.838 188.687 201.664 188.86C201.491 189.02 201.244 189.1 200.924 189.1H198.804V193.22C198.804 193.86 198.944 194.34 199.224 194.66C199.504 194.98 199.958 195.14 200.584 195.14C200.811 195.14 201.011 195.12 201.184 195.08C201.358 195.04 201.511 195.013 201.644 195C201.804 194.987 201.938 195.04 202.044 195.16C202.151 195.267 202.204 195.493 202.204 195.84C202.204 196.107 202.158 196.347 202.064 196.56C201.984 196.76 201.831 196.9 201.604 196.98C201.431 197.033 201.204 197.08 200.924 197.12C200.644 197.173 200.398 197.2 200.184 197.2ZM210.05 197.16C209.65 197.16 209.343 197.053 209.13 196.84C208.916 196.613 208.81 196.293 208.81 195.88V188.32C208.81 187.907 208.916 187.593 209.13 187.38C209.343 187.167 209.643 187.06 210.03 187.06C210.416 187.06 210.716 187.167 210.93 187.38C211.143 187.593 211.25 187.907 211.25 188.32V189.68L211.03 189.18C211.323 188.473 211.776 187.94 212.39 187.58C213.016 187.207 213.723 187.02 214.51 187.02C215.296 187.02 215.943 187.167 216.45 187.46C216.956 187.753 217.336 188.2 217.59 188.8C217.843 189.387 217.97 190.133 217.97 191.04V195.88C217.97 196.293 217.863 196.613 217.65 196.84C217.436 197.053 217.13 197.16 216.73 197.16C216.33 197.16 216.016 197.053 215.79 196.84C215.576 196.613 215.47 196.293 215.47 195.88V191.16C215.47 190.4 215.323 189.847 215.03 189.5C214.75 189.153 214.31 188.98 213.71 188.98C212.976 188.98 212.39 189.213 211.95 189.68C211.523 190.133 211.31 190.74 211.31 191.5V195.88C211.31 196.733 210.89 197.16 210.05 197.16ZM223.729 197.2C223.022 197.2 222.389 197.067 221.829 196.8C221.282 196.52 220.849 196.147 220.529 195.68C220.222 195.213 220.069 194.687 220.069 194.1C220.069 193.38 220.256 192.813 220.629 192.4C221.002 191.973 221.609 191.667 222.449 191.48C223.289 191.293 224.416 191.2 225.829 191.2H226.829V192.64H225.849C225.022 192.64 224.362 192.68 223.869 192.76C223.376 192.84 223.022 192.98 222.809 193.18C222.609 193.367 222.509 193.633 222.509 193.98C222.509 194.42 222.662 194.78 222.969 195.06C223.276 195.34 223.702 195.48 224.249 195.48C224.689 195.48 225.076 195.38 225.409 195.18C225.756 194.967 226.029 194.68 226.229 194.32C226.429 193.96 226.529 193.547 226.529 193.08V190.78C226.529 190.113 226.382 189.633 226.089 189.34C225.796 189.047 225.302 188.9 224.609 188.9C224.222 188.9 223.802 188.947 223.349 189.04C222.909 189.133 222.442 189.293 221.949 189.52C221.696 189.64 221.469 189.673 221.269 189.62C221.082 189.567 220.936 189.46 220.829 189.3C220.722 189.127 220.669 188.94 220.669 188.74C220.669 188.54 220.722 188.347 220.829 188.16C220.936 187.96 221.116 187.813 221.369 187.72C221.982 187.467 222.569 187.287 223.129 187.18C223.702 187.073 224.222 187.02 224.689 187.02C225.649 187.02 226.436 187.167 227.049 187.46C227.676 187.753 228.142 188.2 228.449 188.8C228.756 189.387 228.909 190.147 228.909 191.08V195.88C228.909 196.293 228.809 196.613 228.609 196.84C228.409 197.053 228.122 197.16 227.749 197.16C227.376 197.16 227.082 197.053 226.869 196.84C226.669 196.613 226.569 196.293 226.569 195.88V194.92H226.729C226.636 195.387 226.449 195.793 226.169 196.14C225.902 196.473 225.562 196.733 225.149 196.92C224.736 197.107 224.262 197.2 223.729 197.2ZM236.626 197.2C235.466 197.2 234.466 197 233.626 196.6C232.8 196.2 232.16 195.647 231.706 194.94C231.266 194.22 231.046 193.38 231.046 192.42C231.046 191.727 231.14 191.12 231.326 190.6C231.513 190.08 231.76 189.633 232.066 189.26C232.373 188.887 232.7 188.573 233.046 188.32H230.646V186.08H235.906V188.28C235.186 188.693 234.653 189.207 234.306 189.82C233.96 190.42 233.786 191.133 233.786 191.96C233.786 192.933 234.046 193.667 234.566 194.16C235.086 194.64 235.773 194.88 236.626 194.88C237.2 194.88 237.7 194.773 238.126 194.56C238.553 194.347 238.88 194.027 239.106 193.6C239.346 193.16 239.466 192.613 239.466 191.96C239.466 191.4 239.386 190.9 239.226 190.46C239.08 190.007 238.853 189.6 238.546 189.24C238.24 188.88 237.846 188.56 237.366 188.28V186.08H242.606V188.32H240.266C240.626 188.56 240.953 188.873 241.246 189.26C241.54 189.633 241.773 190.073 241.946 190.58C242.12 191.087 242.206 191.667 242.206 192.32C242.206 193.307 241.98 194.167 241.526 194.9C241.086 195.633 240.446 196.2 239.606 196.6C238.78 197 237.786 197.2 236.626 197.2ZM244.155 200.6C243.862 200.6 243.629 200.507 243.455 200.32C243.282 200.147 243.195 199.927 243.195 199.66C243.195 199.393 243.282 199.167 243.455 198.98C243.629 198.807 243.862 198.72 244.155 198.72H245.575V184.78H244.155C243.862 184.78 243.629 184.693 243.455 184.52C243.282 184.333 243.195 184.107 243.195 183.84C243.195 183.573 243.282 183.353 243.455 183.18C243.629 182.993 243.862 182.9 244.155 182.9H247.015C247.322 182.9 247.575 183 247.775 183.2C247.975 183.387 248.075 183.633 248.075 183.94V199.56C248.075 199.853 247.975 200.1 247.775 200.3C247.575 200.5 247.322 200.6 247.015 200.6H244.155Z" fill="#A7A7A7"/>
<g clip-path="url(#clip2_1375_1296)">
<path d="M316.667 43.6669C317.587 43.6669 318.333 42.9208 318.333 42.0003C318.333 41.0798 317.587 40.3336 316.667 40.3336C315.746 40.3336 315 41.0798 315 42.0003C315 42.9208 315.746 43.6669 316.667 43.6669Z" fill="black"/>
<path d="M325 43.6669C325.92 43.6669 326.666 42.9208 326.666 42.0003C326.666 41.0798 325.92 40.3336 325 40.3336C324.079 40.3336 323.333 41.0798 323.333 42.0003C323.333 42.9208 324.079 43.6669 325 43.6669Z" fill="black"/>
<path d="M333.334 43.6669C334.254 43.6669 335 42.9208 335 42.0003C335 41.0798 334.254 40.3336 333.334 40.3336C332.413 40.3336 331.667 41.0798 331.667 42.0003C331.667 42.9208 332.413 43.6669 333.334 43.6669Z" fill="black"/>
</g>
<path d="M137.234 291.14C136.968 291.14 136.761 291.067 136.614 290.92C136.481 290.773 136.414 290.567 136.414 290.3V281.96C136.414 281.68 136.481 281.473 136.614 281.34C136.761 281.207 136.968 281.14 137.234 281.14C137.488 281.14 137.681 281.207 137.814 281.34C137.961 281.473 138.034 281.68 138.034 281.96V285.32H143.334V281.96C143.334 281.68 143.401 281.473 143.534 281.34C143.681 281.207 143.881 281.14 144.134 281.14C144.388 281.14 144.588 281.207 144.734 281.34C144.881 281.473 144.954 281.68 144.954 281.96V290.3C144.954 290.567 144.881 290.773 144.734 290.92C144.588 291.067 144.388 291.14 144.134 291.14C143.881 291.14 143.681 291.067 143.534 290.92C143.401 290.773 143.334 290.567 143.334 290.3V286.64H138.034V290.3C138.034 290.567 137.968 290.773 137.834 290.92C137.701 291.067 137.501 291.14 137.234 291.14ZM151.233 291.18C150.566 291.18 149.966 291.053 149.433 290.8C148.913 290.533 148.499 290.173 148.193 289.72C147.886 289.267 147.733 288.76 147.733 288.2C147.733 287.48 147.913 286.913 148.273 286.5C148.646 286.087 149.253 285.793 150.093 285.62C150.946 285.447 152.106 285.36 153.573 285.36H154.473V286.42H153.593C152.513 286.42 151.659 286.473 151.033 286.58C150.419 286.673 149.986 286.84 149.733 287.08C149.493 287.32 149.373 287.66 149.373 288.1C149.373 288.647 149.559 289.093 149.933 289.44C150.319 289.787 150.839 289.96 151.493 289.96C152.026 289.96 152.493 289.833 152.893 289.58C153.306 289.327 153.626 288.98 153.853 288.54C154.093 288.1 154.213 287.593 154.213 287.02V284.74C154.213 283.913 154.046 283.32 153.713 282.96C153.379 282.587 152.833 282.4 152.073 282.4C151.606 282.4 151.139 282.46 150.673 282.58C150.206 282.7 149.713 282.893 149.193 283.16C149.006 283.253 148.846 283.287 148.713 283.26C148.579 283.22 148.473 283.147 148.393 283.04C148.313 282.933 148.266 282.813 148.253 282.68C148.239 282.533 148.266 282.393 148.333 282.26C148.413 282.127 148.533 282.02 148.693 281.94C149.279 281.647 149.859 281.433 150.433 281.3C151.006 281.167 151.553 281.1 152.073 281.1C152.913 281.1 153.606 281.24 154.153 281.52C154.699 281.787 155.106 282.2 155.373 282.76C155.639 283.307 155.773 284.013 155.773 284.88V290.3C155.773 290.567 155.706 290.773 155.573 290.92C155.453 291.067 155.273 291.14 155.033 291.14C154.779 291.14 154.586 291.067 154.453 290.92C154.319 290.773 154.253 290.567 154.253 290.3V288.74H154.433C154.326 289.247 154.119 289.68 153.813 290.04C153.519 290.4 153.153 290.68 152.713 290.88C152.273 291.08 151.779 291.18 151.233 291.18ZM165.974 291.14C165.721 291.14 165.521 291.067 165.374 290.92C165.241 290.76 165.174 290.547 165.174 290.28V287.06C164.801 287.287 164.394 287.46 163.954 287.58C163.527 287.687 163.074 287.74 162.594 287.74C161.207 287.74 160.181 287.413 159.514 286.76C158.847 286.093 158.514 285.087 158.514 283.74V281.96C158.514 281.693 158.581 281.493 158.714 281.36C158.861 281.213 159.067 281.14 159.334 281.14C159.587 281.14 159.781 281.213 159.914 281.36C160.061 281.493 160.134 281.693 160.134 281.96V283.62C160.134 284.58 160.341 285.28 160.754 285.72C161.181 286.16 161.861 286.38 162.794 286.38C163.274 286.38 163.701 286.327 164.074 286.22C164.447 286.113 164.807 285.94 165.154 285.7V281.98C165.154 281.42 165.421 281.14 165.954 281.14C166.221 281.14 166.421 281.213 166.554 281.36C166.701 281.507 166.774 281.713 166.774 281.98V290.28C166.774 290.547 166.707 290.76 166.574 290.92C166.441 291.067 166.241 291.14 165.974 291.14ZM170.789 291.14C170.522 291.14 170.316 291.067 170.169 290.92C170.036 290.773 169.969 290.567 169.969 290.3V281.96C169.969 281.68 170.036 281.473 170.169 281.34C170.316 281.207 170.522 281.14 170.789 281.14C171.042 281.14 171.236 281.207 171.369 281.34C171.516 281.473 171.589 281.68 171.589 281.96V285.32H176.889V281.96C176.889 281.68 176.956 281.473 177.089 281.34C177.236 281.207 177.436 281.14 177.689 281.14C177.942 281.14 178.142 281.207 178.289 281.34C178.436 281.473 178.509 281.68 178.509 281.96V290.3C178.509 290.567 178.436 290.773 178.289 290.92C178.142 291.067 177.942 291.14 177.689 291.14C177.436 291.14 177.236 291.067 177.089 290.92C176.956 290.773 176.889 290.567 176.889 290.3V286.64H171.589V290.3C171.589 290.567 171.522 290.773 171.389 290.92C171.256 291.067 171.056 291.14 170.789 291.14ZM182.447 291.14C182.301 291.14 182.167 291.107 182.047 291.04C181.941 290.987 181.854 290.893 181.787 290.76C181.734 290.627 181.707 290.46 181.707 290.26V281.94C181.707 281.673 181.774 281.473 181.907 281.34C182.041 281.207 182.221 281.14 182.447 281.14C182.687 281.14 182.867 281.207 182.987 281.34C183.121 281.473 183.187 281.673 183.187 281.94V289.46H182.687L188.507 281.66C188.614 281.513 188.741 281.393 188.887 281.3C189.034 281.193 189.221 281.14 189.447 281.14C189.607 281.14 189.741 281.167 189.847 281.22C189.954 281.273 190.034 281.367 190.087 281.5C190.154 281.62 190.187 281.787 190.187 282V290.34C190.187 290.593 190.121 290.793 189.987 290.94C189.867 291.073 189.687 291.14 189.447 291.14C189.207 291.14 189.021 291.073 188.887 290.94C188.767 290.793 188.707 290.593 188.707 290.34V282.8H189.207L183.367 290.62C183.274 290.753 183.154 290.873 183.007 290.98C182.874 291.087 182.687 291.14 182.447 291.14ZM202.683 291.18C201.71 291.18 200.87 290.967 200.163 290.54C199.457 290.113 198.91 289.52 198.523 288.76C198.15 287.987 197.963 287.093 197.963 286.08C197.963 285.307 198.07 284.613 198.283 284C198.497 283.387 198.81 282.867 199.223 282.44C199.637 282 200.13 281.667 200.703 281.44C201.29 281.213 201.95 281.1 202.683 281.1C203.163 281.1 203.663 281.173 204.183 281.32C204.703 281.467 205.177 281.72 205.603 282.08C205.737 282.173 205.823 282.287 205.863 282.42C205.903 282.553 205.903 282.687 205.863 282.82C205.823 282.94 205.757 283.047 205.663 283.14C205.57 283.22 205.45 283.267 205.303 283.28C205.17 283.293 205.03 283.247 204.883 283.14C204.537 282.873 204.183 282.687 203.823 282.58C203.463 282.473 203.117 282.42 202.783 282.42C202.263 282.42 201.81 282.507 201.423 282.68C201.037 282.84 200.71 283.073 200.443 283.38C200.177 283.687 199.97 284.067 199.823 284.52C199.69 284.973 199.623 285.5 199.623 286.1C199.623 287.26 199.897 288.18 200.443 288.86C200.99 289.527 201.77 289.86 202.783 289.86C203.117 289.86 203.457 289.807 203.803 289.7C204.163 289.593 204.523 289.407 204.883 289.14C205.03 289.033 205.17 288.987 205.303 289C205.437 289.013 205.55 289.067 205.643 289.16C205.737 289.24 205.797 289.347 205.823 289.48C205.863 289.613 205.863 289.747 205.823 289.88C205.783 290 205.697 290.107 205.563 290.2C205.137 290.547 204.67 290.8 204.163 290.96C203.657 291.107 203.163 291.18 202.683 291.18ZM212.396 291.18C211.37 291.18 210.483 290.98 209.736 290.58C209.003 290.167 208.43 289.587 208.016 288.84C207.616 288.093 207.416 287.2 207.416 286.16C207.416 285.147 207.616 284.267 208.016 283.52C208.416 282.76 208.963 282.167 209.656 281.74C210.363 281.313 211.176 281.1 212.096 281.1C212.75 281.1 213.336 281.213 213.856 281.44C214.376 281.653 214.816 281.967 215.176 282.38C215.55 282.793 215.83 283.293 216.016 283.88C216.216 284.467 216.316 285.127 216.316 285.86C216.316 286.073 216.256 286.233 216.136 286.34C216.016 286.433 215.843 286.48 215.616 286.48H208.656V285.42H215.236L214.916 285.68C214.916 284.96 214.81 284.353 214.596 283.86C214.383 283.353 214.07 282.967 213.656 282.7C213.256 282.433 212.75 282.3 212.136 282.3C211.456 282.3 210.876 282.46 210.396 282.78C209.93 283.087 209.576 283.52 209.336 284.08C209.096 284.627 208.976 285.267 208.976 286V286.12C208.976 287.347 209.27 288.28 209.856 288.92C210.456 289.56 211.303 289.88 212.396 289.88C212.85 289.88 213.296 289.82 213.736 289.7C214.19 289.58 214.63 289.38 215.056 289.1C215.243 288.98 215.41 288.927 215.556 288.94C215.716 288.94 215.843 288.987 215.936 289.08C216.03 289.16 216.09 289.267 216.116 289.4C216.156 289.52 216.143 289.653 216.076 289.8C216.023 289.947 215.91 290.073 215.736 290.18C215.296 290.5 214.776 290.747 214.176 290.92C213.576 291.093 212.983 291.18 212.396 291.18ZM219.576 291.14C219.43 291.14 219.296 291.107 219.176 291.04C219.07 290.987 218.983 290.893 218.916 290.76C218.863 290.627 218.836 290.46 218.836 290.26V281.94C218.836 281.673 218.903 281.473 219.036 281.34C219.17 281.207 219.35 281.14 219.576 281.14C219.816 281.14 219.996 281.207 220.116 281.34C220.25 281.473 220.316 281.673 220.316 281.94V289.46H219.816L225.636 281.66C225.743 281.513 225.87 281.393 226.016 281.3C226.163 281.193 226.35 281.14 226.576 281.14C226.736 281.14 226.87 281.167 226.976 281.22C227.083 281.273 227.163 281.367 227.216 281.5C227.283 281.62 227.316 281.787 227.316 282V290.34C227.316 290.593 227.25 290.793 227.116 290.94C226.996 291.073 226.816 291.14 226.576 291.14C226.336 291.14 226.15 291.073 226.016 290.94C225.896 290.793 225.836 290.593 225.836 290.34V282.8H226.336L220.496 290.62C220.403 290.753 220.283 290.873 220.136 290.98C220.003 291.087 219.816 291.14 219.576 291.14ZM223.076 280.02C222.37 280.02 221.716 279.84 221.116 279.48C220.53 279.12 220.09 278.573 219.796 277.84C219.73 277.64 219.723 277.48 219.776 277.36C219.83 277.227 219.93 277.133 220.076 277.08C220.223 277.027 220.356 277.033 220.476 277.1C220.596 277.153 220.696 277.273 220.776 277.46C221.016 277.967 221.323 278.353 221.696 278.62C222.083 278.873 222.543 279 223.076 279C223.623 279 224.083 278.873 224.456 278.62C224.83 278.353 225.136 277.967 225.376 277.46C225.47 277.273 225.576 277.153 225.696 277.1C225.816 277.033 225.943 277.027 226.076 277.08C226.236 277.133 226.336 277.227 226.376 277.36C226.43 277.48 226.416 277.64 226.336 277.84C226.03 278.573 225.583 279.12 224.996 279.48C224.423 279.84 223.783 280.02 223.076 280.02ZM237.556 291.14C237.303 291.14 237.103 291.067 236.956 290.92C236.823 290.76 236.756 290.547 236.756 290.28V287.06C236.383 287.287 235.976 287.46 235.536 287.58C235.109 287.687 234.656 287.74 234.176 287.74C232.789 287.74 231.763 287.413 231.096 286.76C230.429 286.093 230.096 285.087 230.096 283.74V281.96C230.096 281.693 230.163 281.493 230.296 281.36C230.443 281.213 230.649 281.14 230.916 281.14C231.169 281.14 231.363 281.213 231.496 281.36C231.643 281.493 231.716 281.693 231.716 281.96V283.62C231.716 284.58 231.923 285.28 232.336 285.72C232.763 286.16 233.443 286.38 234.376 286.38C234.856 286.38 235.283 286.327 235.656 286.22C236.029 286.113 236.389 285.94 236.736 285.7V281.98C236.736 281.42 237.003 281.14 237.536 281.14C237.803 281.14 238.003 281.213 238.136 281.36C238.283 281.507 238.356 281.713 238.356 281.98V290.28C238.356 290.547 238.289 290.76 238.156 290.92C238.023 291.067 237.823 291.14 237.556 291.14ZM244.631 291.18C243.965 291.18 243.365 291.053 242.831 290.8C242.311 290.533 241.898 290.173 241.591 289.72C241.285 289.267 241.131 288.76 241.131 288.2C241.131 287.48 241.311 286.913 241.671 286.5C242.045 286.087 242.651 285.793 243.491 285.62C244.345 285.447 245.505 285.36 246.971 285.36H247.871V286.42H246.991C245.911 286.42 245.058 286.473 244.431 286.58C243.818 286.673 243.385 286.84 243.131 287.08C242.891 287.32 242.771 287.66 242.771 288.1C242.771 288.647 242.958 289.093 243.331 289.44C243.718 289.787 244.238 289.96 244.891 289.96C245.425 289.96 245.891 289.833 246.291 289.58C246.705 289.327 247.025 288.98 247.251 288.54C247.491 288.1 247.611 287.593 247.611 287.02V284.74C247.611 283.913 247.445 283.32 247.111 282.96C246.778 282.587 246.231 282.4 245.471 282.4C245.005 282.4 244.538 282.46 244.071 282.58C243.605 282.7 243.111 282.893 242.591 283.16C242.405 283.253 242.245 283.287 242.111 283.26C241.978 283.22 241.871 283.147 241.791 283.04C241.711 282.933 241.665 282.813 241.651 282.68C241.638 282.533 241.665 282.393 241.731 282.26C241.811 282.127 241.931 282.02 242.091 281.94C242.678 281.647 243.258 281.433 243.831 281.3C244.405 281.167 244.951 281.1 245.471 281.1C246.311 281.1 247.005 281.24 247.551 281.52C248.098 281.787 248.505 282.2 248.771 282.76C249.038 283.307 249.171 284.013 249.171 284.88V290.3C249.171 290.567 249.105 290.773 248.971 290.92C248.851 291.067 248.671 291.14 248.431 291.14C248.178 291.14 247.985 291.067 247.851 290.92C247.718 290.773 247.651 290.567 247.651 290.3V288.74H247.831C247.725 289.247 247.518 289.68 247.211 290.04C246.918 290.4 246.551 290.68 246.111 290.88C245.671 291.08 245.178 291.18 244.631 291.18ZM256.472 291.18C255.499 291.18 254.659 290.967 253.952 290.54C253.246 290.113 252.699 289.52 252.312 288.76C251.939 287.987 251.752 287.093 251.752 286.08C251.752 285.307 251.859 284.613 252.072 284C252.286 283.387 252.599 282.867 253.012 282.44C253.426 282 253.919 281.667 254.492 281.44C255.079 281.213 255.739 281.1 256.472 281.1C256.952 281.1 257.452 281.173 257.972 281.32C258.492 281.467 258.966 281.72 259.392 282.08C259.526 282.173 259.612 282.287 259.652 282.42C259.692 282.553 259.692 282.687 259.652 282.82C259.612 282.94 259.546 283.047 259.452 283.14C259.359 283.22 259.239 283.267 259.092 283.28C258.959 283.293 258.819 283.247 258.672 283.14C258.326 282.873 257.972 282.687 257.612 282.58C257.252 282.473 256.906 282.42 256.572 282.42C256.052 282.42 255.599 282.507 255.212 282.68C254.826 282.84 254.499 283.073 254.232 283.38C253.966 283.687 253.759 284.067 253.612 284.52C253.479 284.973 253.412 285.5 253.412 286.1C253.412 287.26 253.686 288.18 254.232 288.86C254.779 289.527 255.559 289.86 256.572 289.86C256.906 289.86 257.246 289.807 257.592 289.7C257.952 289.593 258.312 289.407 258.672 289.14C258.819 289.033 258.959 288.987 259.092 289C259.226 289.013 259.339 289.067 259.432 289.16C259.526 289.24 259.586 289.347 259.612 289.48C259.652 289.613 259.652 289.747 259.612 289.88C259.572 290 259.486 290.107 259.352 290.2C258.926 290.547 258.459 290.8 257.952 290.96C257.446 291.107 256.952 291.18 256.472 291.18Z" fill="black"/>
<path d="M137.423 153.3C136.563 153.3 135.653 153.21 134.693 153.03C133.733 152.85 132.873 152.54 132.113 152.1C131.793 151.9 131.563 151.67 131.423 151.41C131.303 151.13 131.253 150.86 131.273 150.6C131.313 150.32 131.413 150.08 131.573 149.88C131.753 149.68 131.973 149.55 132.233 149.49C132.513 149.43 132.813 149.48 133.133 149.64C133.933 150.02 134.683 150.29 135.383 150.45C136.083 150.59 136.773 150.66 137.453 150.66C138.413 150.66 139.123 150.5 139.583 150.18C140.063 149.84 140.303 149.4 140.303 148.86C140.303 148.4 140.143 148.05 139.823 147.81C139.523 147.55 139.063 147.36 138.443 147.24L135.443 146.67C134.203 146.43 133.253 145.98 132.593 145.32C131.953 144.64 131.633 143.77 131.633 142.71C131.633 141.75 131.893 140.92 132.413 140.22C132.953 139.52 133.693 138.98 134.633 138.6C135.573 138.22 136.653 138.03 137.873 138.03C138.753 138.03 139.573 138.13 140.333 138.33C141.113 138.51 141.863 138.8 142.583 139.2C142.883 139.36 143.083 139.57 143.183 139.83C143.303 140.09 143.333 140.36 143.273 140.64C143.213 140.9 143.093 141.14 142.913 141.36C142.733 141.56 142.503 141.69 142.223 141.75C141.963 141.79 141.663 141.73 141.323 141.57C140.703 141.25 140.103 141.02 139.523 140.88C138.963 140.74 138.423 140.67 137.903 140.67C136.923 140.67 136.193 140.84 135.713 141.18C135.253 141.52 135.023 141.97 135.023 142.53C135.023 142.95 135.163 143.3 135.443 143.58C135.723 143.86 136.153 144.05 136.733 144.15L139.733 144.72C141.033 144.96 142.013 145.4 142.673 146.04C143.353 146.68 143.693 147.54 143.693 148.62C143.693 150.08 143.123 151.23 141.983 152.07C140.843 152.89 139.323 153.3 137.423 153.3ZM153.274 153.3C151.974 153.3 150.884 153.08 150.004 152.64C149.144 152.2 148.504 151.56 148.084 150.72C147.664 149.86 147.454 148.8 147.454 147.54V141.15H145.894C145.414 141.15 145.044 141.03 144.784 140.79C144.524 140.53 144.394 140.18 144.394 139.74C144.394 139.28 144.524 138.93 144.784 138.69C145.044 138.45 145.414 138.33 145.894 138.33H147.454V135.6C147.454 134.98 147.614 134.51 147.934 134.19C148.274 133.87 148.744 133.71 149.344 133.71C149.944 133.71 150.404 133.87 150.724 134.19C151.044 134.51 151.204 134.98 151.204 135.6V138.33H154.384C154.864 138.33 155.234 138.45 155.494 138.69C155.754 138.93 155.884 139.28 155.884 139.74C155.884 140.18 155.754 140.53 155.494 140.79C155.234 141.03 154.864 141.15 154.384 141.15H151.204V147.33C151.204 148.29 151.414 149.01 151.834 149.49C152.254 149.97 152.934 150.21 153.874 150.21C154.214 150.21 154.514 150.18 154.774 150.12C155.034 150.06 155.264 150.02 155.464 150C155.704 149.98 155.904 150.06 156.064 150.24C156.224 150.4 156.304 150.74 156.304 151.26C156.304 151.66 156.234 152.02 156.094 152.34C155.974 152.64 155.744 152.85 155.404 152.97C155.144 153.05 154.804 153.12 154.384 153.18C153.964 153.26 153.594 153.3 153.274 153.3ZM162.898 153.3C161.838 153.3 160.888 153.1 160.048 152.7C159.228 152.28 158.578 151.72 158.098 151.02C157.638 150.32 157.408 149.53 157.408 148.65C157.408 147.57 157.688 146.72 158.248 146.1C158.808 145.46 159.718 145 160.978 144.72C162.238 144.44 163.928 144.3 166.048 144.3H167.548V146.46H166.078C164.838 146.46 163.848 146.52 163.108 146.64C162.368 146.76 161.838 146.97 161.518 147.27C161.218 147.55 161.068 147.95 161.068 148.47C161.068 149.13 161.298 149.67 161.758 150.09C162.218 150.51 162.858 150.72 163.678 150.72C164.338 150.72 164.918 150.57 165.418 150.27C165.938 149.95 166.348 149.52 166.648 148.98C166.948 148.44 167.098 147.82 167.098 147.12V143.67C167.098 142.67 166.878 141.95 166.438 141.51C165.998 141.07 165.258 140.85 164.218 140.85C163.638 140.85 163.008 140.92 162.328 141.06C161.668 141.2 160.968 141.44 160.228 141.78C159.848 141.96 159.508 142.01 159.208 141.93C158.928 141.85 158.708 141.69 158.548 141.45C158.388 141.19 158.308 140.91 158.308 140.61C158.308 140.31 158.388 140.02 158.548 139.74C158.708 139.44 158.978 139.22 159.358 139.08C160.278 138.7 161.158 138.43 161.998 138.27C162.858 138.11 163.638 138.03 164.338 138.03C165.778 138.03 166.958 138.25 167.878 138.69C168.818 139.13 169.518 139.8 169.978 140.7C170.438 141.58 170.668 142.72 170.668 144.12V151.32C170.668 151.94 170.518 152.42 170.218 152.76C169.918 153.08 169.488 153.24 168.928 153.24C168.368 153.24 167.928 153.08 167.608 152.76C167.308 152.42 167.158 151.94 167.158 151.32V149.88H167.398C167.258 150.58 166.978 151.19 166.558 151.71C166.158 152.21 165.648 152.6 165.028 152.88C164.408 153.16 163.698 153.3 162.898 153.3ZM176.394 153.24C175.774 153.24 175.294 153.08 174.954 152.76C174.634 152.42 174.474 151.94 174.474 151.32V139.98C174.474 139.36 174.634 138.89 174.954 138.57C175.274 138.25 175.724 138.09 176.304 138.09C176.884 138.09 177.334 138.25 177.654 138.57C177.974 138.89 178.134 139.36 178.134 139.98V141.87H177.834C178.114 140.67 178.664 139.76 179.484 139.14C180.304 138.52 181.394 138.15 182.754 138.03C183.174 137.99 183.504 138.1 183.744 138.36C184.004 138.6 184.154 138.98 184.194 139.5C184.234 140 184.114 140.41 183.834 140.73C183.574 141.03 183.174 141.21 182.634 141.27L181.974 141.33C180.754 141.45 179.834 141.83 179.214 142.47C178.594 143.09 178.284 143.97 178.284 145.11V151.32C178.284 151.94 178.124 152.42 177.804 152.76C177.484 153.08 177.014 153.24 176.394 153.24ZM193.792 153.3C192.492 153.3 191.402 153.08 190.522 152.64C189.662 152.2 189.022 151.56 188.602 150.72C188.182 149.86 187.972 148.8 187.972 147.54V141.15H186.412C185.932 141.15 185.562 141.03 185.302 140.79C185.042 140.53 184.912 140.18 184.912 139.74C184.912 139.28 185.042 138.93 185.302 138.69C185.562 138.45 185.932 138.33 186.412 138.33H187.972V135.6C187.972 134.98 188.132 134.51 188.452 134.19C188.792 133.87 189.262 133.71 189.862 133.71C190.462 133.71 190.922 133.87 191.242 134.19C191.562 134.51 191.722 134.98 191.722 135.6V138.33H194.902C195.382 138.33 195.752 138.45 196.012 138.69C196.272 138.93 196.402 139.28 196.402 139.74C196.402 140.18 196.272 140.53 196.012 140.79C195.752 141.03 195.382 141.15 194.902 141.15H191.722V147.33C191.722 148.29 191.932 149.01 192.352 149.49C192.772 149.97 193.452 150.21 194.392 150.21C194.732 150.21 195.032 150.18 195.292 150.12C195.552 150.06 195.782 150.02 195.982 150C196.222 149.98 196.422 150.06 196.582 150.24C196.742 150.4 196.822 150.74 196.822 151.26C196.822 151.66 196.752 152.02 196.612 152.34C196.492 152.64 196.262 152.85 195.922 152.97C195.662 153.05 195.322 153.12 194.902 153.18C194.482 153.26 194.112 153.3 193.792 153.3ZM208.59 153.24C207.99 153.24 207.53 153.08 207.21 152.76C206.89 152.42 206.73 151.94 206.73 151.32V139.98C206.73 139.36 206.89 138.89 207.21 138.57C207.53 138.25 207.98 138.09 208.56 138.09C209.14 138.09 209.59 138.25 209.91 138.57C210.23 138.89 210.39 139.36 210.39 139.98V142.02L210.06 141.27C210.5 140.21 211.18 139.41 212.1 138.87C213.04 138.31 214.1 138.03 215.28 138.03C216.46 138.03 217.43 138.25 218.19 138.69C218.95 139.13 219.52 139.8 219.9 140.7C220.28 141.58 220.47 142.7 220.47 144.06V151.32C220.47 151.94 220.31 152.42 219.99 152.76C219.67 153.08 219.21 153.24 218.61 153.24C218.01 153.24 217.54 153.08 217.2 152.76C216.88 152.42 216.72 151.94 216.72 151.32V144.24C216.72 143.1 216.5 142.27 216.06 141.75C215.64 141.23 214.98 140.97 214.08 140.97C212.98 140.97 212.1 141.32 211.44 142.02C210.8 142.7 210.48 143.61 210.48 144.75V151.32C210.48 152.6 209.85 153.24 208.59 153.24ZM230.969 153.3C229.449 153.3 228.129 152.99 227.009 152.37C225.889 151.75 225.019 150.87 224.399 149.73C223.779 148.57 223.469 147.21 223.469 145.65C223.469 144.47 223.639 143.42 223.979 142.5C224.339 141.56 224.849 140.76 225.509 140.1C226.169 139.42 226.959 138.91 227.879 138.57C228.799 138.21 229.829 138.03 230.969 138.03C232.489 138.03 233.809 138.34 234.929 138.96C236.049 139.58 236.919 140.46 237.539 141.6C238.159 142.74 238.469 144.09 238.469 145.65C238.469 146.83 238.289 147.89 237.929 148.83C237.589 149.77 237.089 150.58 236.429 151.26C235.769 151.92 234.979 152.43 234.059 152.79C233.139 153.13 232.109 153.3 230.969 153.3ZM230.969 150.45C231.709 150.45 232.359 150.27 232.919 149.91C233.479 149.55 233.909 149.02 234.209 148.32C234.529 147.6 234.689 146.71 234.689 145.65C234.689 144.05 234.349 142.86 233.669 142.08C232.989 141.28 232.089 140.88 230.969 140.88C230.229 140.88 229.579 141.06 229.019 141.42C228.459 141.76 228.019 142.29 227.699 143.01C227.399 143.71 227.249 144.59 227.249 145.65C227.249 147.23 227.589 148.43 228.269 149.25C228.949 150.05 229.849 150.45 230.969 150.45ZM246.941 153.24C246.441 153.24 246.011 153.12 245.651 152.88C245.291 152.62 245.001 152.22 244.781 151.68L240.431 140.58C240.251 140.1 240.191 139.68 240.251 139.32C240.331 138.94 240.521 138.64 240.821 138.42C241.121 138.2 241.521 138.09 242.021 138.09C242.461 138.09 242.821 138.2 243.101 138.42C243.381 138.62 243.621 139.01 243.821 139.59L247.451 149.58H246.761L250.511 139.35C250.671 138.91 250.881 138.59 251.141 138.39C251.421 138.19 251.781 138.09 252.221 138.09C252.661 138.09 253.021 138.2 253.301 138.42C253.581 138.62 253.791 138.93 253.931 139.35L257.621 149.58H256.991L260.651 139.5C260.851 138.96 261.101 138.59 261.401 138.39C261.721 138.19 262.071 138.09 262.451 138.09C262.931 138.09 263.301 138.21 263.561 138.45C263.821 138.69 263.971 139 264.011 139.38C264.051 139.74 263.981 140.14 263.801 140.58L259.481 151.68C259.281 152.2 258.991 152.59 258.611 152.85C258.251 153.11 257.821 153.24 257.321 153.24C256.821 153.24 256.381 153.11 256.001 152.85C255.641 152.59 255.361 152.2 255.161 151.68L251.231 141.27H252.941L249.101 151.65C248.901 152.19 248.621 152.59 248.261 152.85C247.901 153.11 247.461 153.24 246.941 153.24Z" fill="black"/>
<defs>
<filter id="filter0_dddd_1375_1296" x="-9.36426" y="6.63586" width="430.013" height="634.755" filterUnits="userSpaceOnUse" color-interpolation-filters="sRGB">
<feFlood flood-opacity="0" result="BackgroundImageFix"/>
<feColorMatrix in="SourceAlpha" type="matrix" values="0 0 0 0 0 0 0 0 0 0 0 0 0 0 0 0 0 0 127 0" result="hardAlpha"/>
<feOffset dy="7"/>
<feGaussianBlur stdDeviation="8"/>
<feColorMatrix type="matrix" values="0 0 0 0 0.588235 0 0 0 0 0.588235 0 0 0 0 0.588235 0 0 0 0.1 0"/>
<feBlend mode="normal" in2="BackgroundImageFix" result="effect1_dropShadow_1375_1296"/>
<feColorMatrix in="SourceAlpha" type="matrix" values="0 0 0 0 0 0 0 0 0 0 0 0 0 0 0 0 0 0 127 0" result="hardAlpha"/>
<feOffset dy="28"/>
<feGaussianBlur stdDeviation="14"/>
<feColorMatrix type="matrix" values="0 0 0 0 0.588235 0 0 0 0 0.588235 0 0 0 0 0.588235 0 0 0 0.09 0"/>
<feBlend mode="normal" in2="effect1_dropShadow_1375_1296" result="effect2_dropShadow_1375_1296"/>
<feColorMatrix in="SourceAlpha" type="matrix" values="0 0 0 0 0 0 0 0 0 0 0 0 0 0 0 0 0 0 127 0" result="hardAlpha"/>
<feOffset dy="64"/>
<feGaussianBlur stdDeviation="19"/>
<feColorMatrix type="matrix" values="0 0 0 0 0.588235 0 0 0 0 0.588235 0 0 0 0 0.588235 0 0 0 0.05 0"/>
<feBlend mode="normal" in2="effect2_dropShadow_1375_1296" result="effect3_dropShadow_1375_1296"/>
<feColorMatrix in="SourceAlpha" type="matrix" values="0 0 0 0 0 0 0 0 0 0 0 0 0 0 0 0 0 0 127 0" result="hardAlpha"/>
<feOffset dy="114"/>
<feGaussianBlur stdDeviation="22.5"/>
<feColorMatrix type="matrix" values="0 0 0 0 0.588235 0 0 0 0 0.588235 0 0 0 0 0.588235 0 0 0 0.01 0"/>
<feBlend mode="normal" in2="effect3_dropShadow_1375_1296" result="effect4_dropShadow_1375_1296"/>
<feBlend mode="normal" in="SourceGraphic" in2="effect4_dropShadow_1375_1296" result="shape"/>
</filter>
<filter id="filter1_dddd_1375_1296" x="-15" y="0" width="420" height="628" filterUnits="userSpaceOnUse" color-interpolation-filters="sRGB">
<feFlood flood-opacity="0" result="BackgroundImageFix"/>
<feColorMatrix in="SourceAlpha" type="matrix" values="0 0 0 0 0 0 0 0 0 0 0 0 0 0 0 0 0 0 127 0" result="hardAlpha"/>
<feOffset dy="7"/>
<feGaussianBlur stdDeviation="8"/>
<feColorMatrix type="matrix" values="0 0 0 0 0.588235 0 0 0 0 0.588235 0 0 0 0 0.588235 0 0 0 0.1 0"/>
<feBlend mode="normal" in2="BackgroundImageFix" result="effect1_dropShadow_1375_1296"/>
<feColorMatrix in="SourceAlpha" type="matrix" values="0 0 0 0 0 0 0 0 0 0 0 0 0 0 0 0 0 0 127 0" result="hardAlpha"/>
<feOffset dy="28"/>
<feGaussianBlur stdDeviation="14"/>
<feColorMatrix type="matrix" values="0 0 0 0 0.588235 0 0 0 0 0.588235 0 0 0 0 0.588235 0 0 0 0.09 0"/>
<feBlend mode="normal" in2="effect1_dropShadow_1375_1296" result="effect2_dropShadow_1375_1296"/>
<feColorMatrix in="SourceAlpha" type="matrix" values="0 0 0 0 0 0 0 0 0 0 0 0 0 0 0 0 0 0 127 0" result="hardAlpha"/>
<feOffset dy="64"/>
<feGaussianBlur stdDeviation="19"/>
<feColorMatrix type="matrix" values="0 0 0 0 0.588235 0 0 0 0 0.588235 0 0 0 0 0.588235 0 0 0 0.05 0"/>
<feBlend mode="normal" in2="effect2_dropShadow_1375_1296" result="effect3_dropShadow_1375_1296"/>
<feColorMatrix in="SourceAlpha" type="matrix" values="0 0 0 0 0 0 0 0 0 0 0 0 0 0 0 0 0 0 127 0" result="hardAlpha"/>
<feOffset dy="114"/>
<feGaussianBlur stdDeviation="22.5"/>
<feColorMatrix type="matrix" values="0 0 0 0 0.588235 0 0 0 0 0.588235 0 0 0 0 0.588235 0 0 0 0.01 0"/>
<feBlend mode="normal" in2="effect3_dropShadow_1375_1296" result="effect4_dropShadow_1375_1296"/>
<feBlend mode="normal" in="SourceGraphic" in2="effect4_dropShadow_1375_1296" result="shape"/>
</filter>
<clipPath id="clip0_1375_1296">
<rect width="22.2222" height="22.2222" fill="white" transform="translate(78.8877 411.889)"/>
</clipPath>
<clipPath id="clip1_1375_1296">
<rect x="293.888" y="411.889" width="22.2222" height="22.2222" rx="5" fill="white"/>
</clipPath>
<clipPath id="clip2_1375_1296">
<rect width="20" height="20" fill="white" transform="translate(315 32)"/>
</clipPath>
</defs>
</svg>
